<svg width="179" height="25" viewBox="0 0 179 25" fill="none" xmlns="http://www.w3.org/2000/svg">
<path d="M34.7074 0.889024C37.6679 0.87601 40.6734 1.21909 42.1983 2.67341C44.9095 5.25945 48.758 8.08948 49.9386 8.13832C51.119 8.18727 65.8993 8.04086 66.7739 8.28474C67.6485 8.52874 68.6543 9.40703 68.6543 9.40703C68.6543 9.40703 73.5519 10.6269 74.3828 11.3588C75.2136 12.0907 74.9951 12.725 74.9077 13.0177C74.8202 13.3104 73.5518 15.8476 73.5518 15.8476C73.5518 15.8476 74.3172 16.3845 74.3172 16.726C74.3172 17.0676 73.3334 20.9952 73.071 21.1415C72.8119 21.286 67.6167 21.3826 67.483 21.3852C67.7334 20.5935 67.8621 19.7602 67.8637 18.9206C67.8637 16.9441 67.1599 15.0485 65.9073 13.651C64.6548 12.2535 62.9558 11.4683 61.1845 11.4684C57.4959 11.4684 54.5056 14.8049 54.5056 18.9206C54.5056 19.6906 54.6141 20.4559 54.8248 21.1891C54.4916 21.5221 53.9895 21.8643 53.2473 22.0417C51.5159 22.4557 22.6356 22.0417 22.6356 22.0417L22.468 21.8176C22.8164 20.9011 22.9965 19.9161 22.9979 18.9206C22.9979 14.8049 20.0077 11.4684 16.319 11.4684C12.6306 11.4684 9.64034 14.8049 9.64034 18.9206C9.64034 19.0115 9.64831 19.1024 9.64911 19.1931C8.89991 19.1391 4.22766 18.79 3.5419 18.3849C2.79845 17.9458 1.96781 16.1891 1.96781 16.1891C1.96781 16.1891 1.35567 16.3356 1.00553 15.7989C0.655785 15.2623 0 13.7983 0 13.7983C0 13.7983 1.26819 9.40704 0.349982 8.43117C0.349982 8.43117 3.36717 8.3337 4.59156 8.18749C5.81578 8.04086 25.1001 1.40502 28.5986 1.20998C30.1289 1.12434 32.4049 0.899011 34.7074 0.889024ZM35.9422 3.38194C32.352 3.38694 27.4129 3.65709 27.0682 4.13715C26.5436 4.86903 27.7679 8.77272 27.7679 8.77272C28.38 9.30923 45.2595 9.11421 45.5218 9.06525C45.7841 9.01641 40.4492 4.03969 39.6184 3.60066C39.3329 3.44979 37.8227 3.37944 35.9422 3.38194ZM19.496 8.22222C13.0186 8.21201 4.3607 10.8353 4.3607 10.8353H65.8499C69.6026 11.1847 71.3045 12.8225 71.3045 12.8225H73.5346C71.8645 10.1467 64.4274 10.7447 64.1184 10.7708L25.4488 9.75934C24.2312 8.6338 22.0307 8.22646 19.496 8.22222ZM64.321 10.7703C64.733 10.7679 65.1251 10.7813 65.4986 10.8069L64.1669 10.7721C64.2188 10.7717 64.2701 10.7703 64.321 10.7703ZM61.0396 12.5715C64.0748 12.5715 66.5591 15.3433 66.5591 18.7299C66.5591 22.1165 64.0748 24.8887 61.0396 24.8887C58.0045 24.8887 55.5202 22.1165 55.5202 18.7299C55.5202 15.3433 58.0045 12.5715 61.0396 12.5715ZM16.3492 12.5715C19.3845 12.5715 21.8687 15.3433 21.8687 18.7299C21.8687 22.1165 19.3845 24.8887 16.3492 24.8887C13.3139 24.8887 10.8289 22.1165 10.8289 18.7299C10.8289 15.3433 13.3139 12.5715 16.3492 12.5715ZM61.0396 15.0527C59.2063 15.0527 57.7442 16.6842 57.7442 18.7299C57.7442 20.7755 59.2063 22.4072 61.0396 22.4072C62.873 22.4072 64.3354 20.7755 64.3354 18.7299C64.3354 16.6842 62.873 15.0527 61.0396 15.0527ZM16.3492 15.0527C14.5158 15.0527 13.0524 16.6842 13.0524 18.7299C13.0524 20.7755 14.5158 22.4072 16.3492 22.4072C18.1824 22.4072 19.6448 20.7755 19.6448 18.7299C19.6448 16.6842 18.1824 15.0527 16.3492 15.0527ZM24.2737 16.6597C24.9539 18.5917 24.3835 20.044 24.3835 20.044H53.507L32.7796 18.9703C30.5931 17.3114 24.2737 16.6597 24.2737 16.6597Z" fill="#FF7F2A"/>
<path d="M83.7259 8.27273V17H82.669V9.21023H78.2713V17H77.2145V8.27273H83.7259ZM85.8576 17V8.27273H88.8065C89.4911 8.27273 90.0508 8.39631 90.4854 8.64347C90.9229 8.88778 91.2468 9.21875 91.457 9.63636C91.6673 10.054 91.7724 10.5199 91.7724 11.0341C91.7724 11.5483 91.6673 12.0156 91.457 12.4361C91.2496 12.8565 90.9286 13.1918 90.494 13.4418C90.0593 13.6889 89.5025 13.8125 88.8235 13.8125H86.7099V12.875H88.7894C89.2582 12.875 89.6346 12.794 89.9187 12.6321C90.2028 12.4702 90.4087 12.2514 90.5366 11.9759C90.6673 11.6974 90.7326 11.3835 90.7326 11.0341C90.7326 10.6847 90.6673 10.3722 90.5366 10.0966C90.4087 9.82102 90.2013 9.60511 89.9144 9.44886C89.6275 9.28977 89.2468 9.21023 88.7724 9.21023H86.9144V17H85.8576ZM92.9421 17H91.8342L95.0387 8.27273H96.1296L99.3342 17H98.2262L95.6183 9.65341H95.5501L92.9421 17ZM93.3512 13.5909H97.8171V14.5284H93.3512V13.5909ZM100.694 17V8.27273H103.745C104.353 8.27273 104.854 8.37784 105.249 8.58807C105.644 8.79545 105.938 9.07528 106.131 9.42756C106.324 9.77699 106.421 10.1648 106.421 10.5909C106.421 10.9659 106.354 11.2756 106.221 11.5199C106.09 11.7642 105.917 11.9574 105.701 12.0994C105.488 12.2415 105.256 12.3466 105.006 12.4148V12.5C105.273 12.517 105.542 12.6108 105.811 12.7812C106.081 12.9517 106.307 13.196 106.489 13.5142C106.671 13.8324 106.762 14.2216 106.762 14.6818C106.762 15.1193 106.662 15.5128 106.463 15.8622C106.265 16.2116 105.951 16.4886 105.522 16.6932C105.093 16.8977 104.534 17 103.847 17H100.694ZM101.75 16.0625H103.847C104.537 16.0625 105.027 15.929 105.317 15.6619C105.61 15.392 105.756 15.0653 105.756 14.6818C105.756 14.3864 105.681 14.1136 105.53 13.8636C105.38 13.6108 105.165 13.4091 104.887 13.2585C104.608 13.1051 104.279 13.0284 103.898 13.0284H101.75V16.0625ZM101.75 12.108H103.711C104.029 12.108 104.316 12.0455 104.571 11.9205C104.83 11.7955 105.034 11.6193 105.185 11.392C105.338 11.1648 105.415 10.8977 105.415 10.5909C105.415 10.2074 105.282 9.8821 105.015 9.61506C104.748 9.34517 104.324 9.21023 103.745 9.21023H101.75V12.108ZM108.856 17H107.748L110.953 8.27273H112.044L115.248 17H114.14L111.532 9.65341H111.464L108.856 17ZM109.265 13.5909H113.731V14.5284H109.265V13.5909ZM119.983 17V8.27273H121.039V12.1591H125.693V8.27273H126.75V17H125.693V13.0966H121.039V17H119.983ZM129.223 17H128.115L131.32 8.27273H132.411L135.615 17H134.507L131.9 9.65341H131.831L129.223 17ZM129.632 13.5909H134.098V14.5284H129.632V13.5909ZM140.35 8.27273H141.611L144.577 15.517H144.679L147.645 8.27273H148.907V17H147.918V10.3693H147.833L145.105 17H144.151L141.424 10.3693H141.338V17H140.35V8.27273ZM151.81 11.9375H154.298C154.923 11.9375 155.45 12.0398 155.879 12.2443C156.311 12.4489 156.638 12.7372 156.859 13.1094C157.084 13.4815 157.196 13.9205 157.196 14.4261C157.196 14.9318 157.084 15.3778 156.859 15.7642C156.638 16.1506 156.311 16.4531 155.879 16.6719C155.45 16.8906 154.923 17 154.298 17H151.026V8.27273H152.082V16.0795H154.298C154.696 16.0795 155.033 16 155.308 15.8409C155.587 15.679 155.797 15.4716 155.939 15.2188C156.084 14.9631 156.156 14.6932 156.156 14.4091C156.156 13.9915 155.996 13.6321 155.675 13.331C155.354 13.027 154.895 12.875 154.298 12.875H151.81V11.9375ZM159.105 8.27273V17H158.048V8.27273H159.105ZM160.471 17V16.0284H160.727C161.09 16.0284 161.373 15.9119 161.575 15.679C161.776 15.446 161.921 15.0696 162.009 14.5497C162.1 14.0298 162.161 13.3409 162.192 12.483L162.346 8.27273H167.664V17H166.607V9.21023H163.352L163.215 12.6875C163.181 13.6023 163.097 14.3807 162.964 15.0227C162.83 15.6648 162.596 16.1548 162.261 16.4929C161.925 16.831 161.437 17 160.795 17H160.471ZM177.139 12.6364C177.139 13.5568 176.973 14.3523 176.641 15.0227C176.308 15.6932 175.852 16.2102 175.273 16.5739C174.693 16.9375 174.031 17.1193 173.287 17.1193C172.543 17.1193 171.881 16.9375 171.301 16.5739C170.722 16.2102 170.266 15.6932 169.933 15.0227C169.601 14.3523 169.435 13.5568 169.435 12.6364C169.435 11.7159 169.601 10.9205 169.933 10.25C170.266 9.57955 170.722 9.0625 171.301 8.69886C171.881 8.33523 172.543 8.15341 173.287 8.15341C174.031 8.15341 174.693 8.33523 175.273 8.69886C175.852 9.0625 176.308 9.57955 176.641 10.25C176.973 10.9205 177.139 11.7159 177.139 12.6364ZM176.116 12.6364C176.116 11.8807 175.99 11.2429 175.737 10.723C175.487 10.2031 175.148 9.80966 174.719 9.54261C174.293 9.27557 173.815 9.14205 173.287 9.14205C172.759 9.14205 172.28 9.27557 171.851 9.54261C171.425 9.80966 171.085 10.2031 170.832 10.723C170.582 11.2429 170.457 11.8807 170.457 12.6364C170.457 13.392 170.582 14.0298 170.832 14.5497C171.085 15.0696 171.425 15.4631 171.851 15.7301C172.28 15.9972 172.759 16.1307 173.287 16.1307C173.815 16.1307 174.293 15.9972 174.719 15.7301C175.148 15.4631 175.487 15.0696 175.737 14.5497C175.99 14.0298 176.116 13.392 176.116 12.6364Z" fill="#1A1A1A"/>
<path d="M83.7259 8.27273H83.9159V8.08273H83.7259V8.27273ZM83.7259 17V17.19H83.9159V17H83.7259ZM82.669 17H82.479V17.19H82.669V17ZM82.669 9.21023H82.859V9.02023H82.669V9.21023ZM78.2713 9.21023V9.02023H78.0813V9.21023H78.2713ZM78.2713 17V17.19H78.4613V17H78.2713ZM77.2145 17H77.0245V17.19H77.2145V17ZM77.2145 8.27273V8.08273H77.0245V8.27273H77.2145ZM83.7259 8.27273H83.5359V17H83.7259H83.9159V8.27273H83.7259ZM83.7259 17V16.81H82.669V17V17.19H83.7259V17ZM82.669 17H82.859V9.21023H82.669H82.479V17H82.669ZM82.669 9.21023V9.02023H78.2713V9.21023V9.40023H82.669V9.21023ZM78.2713 9.21023H78.0813V17H78.2713H78.4613V9.21023H78.2713ZM78.2713 17V16.81H77.2145V17V17.19H78.2713V17ZM77.2145 17H77.4045V8.27273H77.2145H77.0245V17H77.2145ZM77.2145 8.27273V8.46273H83.7259V8.27273V8.08273H77.2145V8.27273ZM85.8576 17H85.6676V17.19H85.8576V17ZM85.8576 8.27273V8.08273H85.6676V8.27273H85.8576ZM90.4854 8.64347L90.3915 8.80864L90.3928 8.80935L90.4854 8.64347ZM91.457 9.63636L91.2873 9.7218V9.7218L91.457 9.63636ZM91.457 12.4361L91.2871 12.3511L91.2866 12.352L91.457 12.4361ZM90.494 13.4418L90.5879 13.6069L90.5887 13.6065L90.494 13.4418ZM86.7099 13.8125H86.5199V14.0025H86.7099V13.8125ZM86.7099 12.875V12.685H86.5199V12.875H86.7099ZM89.9187 12.6321L89.8246 12.467L89.9187 12.6321ZM90.5366 11.9759L90.3646 11.8951L90.3642 11.8959L90.5366 11.9759ZM90.5366 10.0966L90.3642 10.1766L90.3649 10.178L90.5366 10.0966ZM89.9144 9.44886L89.8223 9.61504L89.8236 9.61573L89.9144 9.44886ZM86.9144 9.21023V9.02023H86.7244V9.21023H86.9144ZM86.9144 17V17.19H87.1044V17H86.9144ZM85.8576 17H86.0476V8.27273H85.8576H85.6676V17H85.8576ZM85.8576 8.27273V8.46273H88.8065V8.27273V8.08273H85.8576V8.27273ZM88.8065 8.27273V8.46273C89.4698 8.46273 89.9941 8.58267 90.3915 8.80863L90.4854 8.64347L90.5794 8.4783C90.1074 8.20995 89.5124 8.08273 88.8065 8.08273V8.27273ZM90.4854 8.64347L90.3928 8.80935C90.7997 9.03655 91.0954 9.34057 91.2873 9.7218L91.457 9.63636L91.6267 9.55093C91.3982 9.09693 91.0462 8.73902 90.5781 8.47758L90.4854 8.64347ZM91.457 9.63636L91.2873 9.7218C91.4829 10.1103 91.5824 10.5465 91.5824 11.0341H91.7724H91.9624C91.9624 10.4932 91.8516 9.99761 91.6267 9.55093L91.457 9.63636ZM91.7724 11.0341H91.5824C91.5824 11.5216 91.4829 11.9594 91.2871 12.3511L91.457 12.4361L91.627 12.5211C91.8516 12.0718 91.9624 11.575 91.9624 11.0341H91.7724ZM91.457 12.4361L91.2866 12.352C91.0971 12.7363 90.8036 13.0445 90.3992 13.2771L90.494 13.4418L90.5887 13.6065C91.0536 13.339 91.4022 12.9768 91.6274 12.5201L91.457 12.4361ZM90.494 13.4418L90.4 13.2766C90.0025 13.5027 89.4809 13.6225 88.8235 13.6225V13.8125V14.0025C89.5241 14.0025 90.1162 13.8752 90.5879 13.6069L90.494 13.4418ZM88.8235 13.8125V13.6225H86.7099V13.8125V14.0025H88.8235V13.8125ZM86.7099 13.8125H86.8999V12.875H86.7099H86.5199V13.8125H86.7099ZM86.7099 12.875V13.065H88.7894V12.875V12.685H86.7099V12.875ZM88.7894 12.875V13.065C89.2777 13.065 89.6902 12.981 90.0128 12.7972L89.9187 12.6321L89.8246 12.467C89.5789 12.6071 89.2386 12.685 88.7894 12.685V12.875ZM89.9187 12.6321L90.0128 12.7972C90.3284 12.6173 90.5632 12.37 90.7089 12.0558L90.5366 11.9759L90.3642 11.8959C90.2543 12.1329 90.0772 12.3231 89.8246 12.467L89.9187 12.6321ZM90.5366 11.9759L90.7086 12.0566C90.8526 11.7497 90.9226 11.4076 90.9226 11.0341H90.7326H90.5426C90.5426 11.3594 90.4819 11.6452 90.3646 11.8951L90.5366 11.9759ZM90.7326 11.0341H90.9226C90.9226 10.6606 90.8526 10.3197 90.7083 10.0152L90.5366 10.0966L90.3649 10.178C90.4819 10.4247 90.5426 10.7087 90.5426 11.0341H90.7326ZM90.5366 10.0966L90.7089 10.0166C90.5626 9.70125 90.3251 9.45617 90.0053 9.282L89.9144 9.44886L89.8236 9.61573C90.0776 9.75405 90.2548 9.94079 90.3642 10.1765L90.5366 10.0966ZM89.9144 9.44886L90.0065 9.2827C89.6816 9.10254 89.2656 9.02023 88.7724 9.02023V9.21023V9.40023C89.228 9.40023 89.5733 9.47701 89.8223 9.61503L89.9144 9.44886ZM88.7724 9.21023V9.02023H86.9144V9.21023V9.40023H88.7724V9.21023ZM86.9144 9.21023H86.7244V17H86.9144H87.1044V9.21023H86.9144ZM86.9144 17V16.81H85.8576V17V17.19H86.9144V17ZM92.9421 17V17.19H93.0763L93.1212 17.0636L92.9421 17ZM91.8342 17L91.6558 16.9345L91.562 17.19H91.8342V17ZM95.0387 8.27273V8.08273H94.9061L94.8604 8.20724L95.0387 8.27273ZM96.1296 8.27273L96.308 8.20724L96.2623 8.08273H96.1296V8.27273ZM99.3342 17V17.19H99.6063L99.5125 16.9345L99.3342 17ZM98.2262 17L98.0472 17.0636L98.092 17.19H98.2262V17ZM95.6183 9.65341L95.7973 9.58985L95.7524 9.46341H95.6183V9.65341ZM95.5501 9.65341V9.46341H95.4159L95.371 9.58985L95.5501 9.65341ZM93.3512 13.5909V13.4009H93.1612V13.5909H93.3512ZM97.8171 13.5909H98.0071V13.4009H97.8171V13.5909ZM97.8171 14.5284V14.7184H98.0071V14.5284H97.8171ZM93.3512 14.5284H93.1612V14.7184H93.3512V14.5284ZM92.9421 17V16.81H91.8342V17V17.19H92.9421V17ZM91.8342 17L92.0125 17.0655L95.2171 8.33822L95.0387 8.27273L94.8604 8.20724L91.6558 16.9345L91.8342 17ZM95.0387 8.27273V8.46273H96.1296V8.27273V8.08273H95.0387V8.27273ZM96.1296 8.27273L95.9513 8.33822L99.1558 17.0655L99.3342 17L99.5125 16.9345L96.308 8.20724L96.1296 8.27273ZM99.3342 17V16.81H98.2262V17V17.19H99.3342V17ZM98.2262 17L98.4053 16.9364L95.7973 9.58985L95.6183 9.65341L95.4392 9.71697L98.0472 17.0636L98.2262 17ZM95.6183 9.65341V9.46341H95.5501V9.65341V9.84341H95.6183V9.65341ZM95.5501 9.65341L95.371 9.58985L92.7631 16.9364L92.9421 17L93.1212 17.0636L95.7291 9.71697L95.5501 9.65341ZM93.3512 13.5909V13.7809H97.8171V13.5909V13.4009H93.3512V13.5909ZM97.8171 13.5909H97.6271V14.5284H97.8171H98.0071V13.5909H97.8171ZM97.8171 14.5284V14.3384H93.3512V14.5284V14.7184H97.8171V14.5284ZM93.3512 14.5284H93.5412V13.5909H93.3512H93.1612V14.5284H93.3512ZM100.694 17H100.504V17.19H100.694V17ZM100.694 8.27273V8.08273H100.504V8.27273H100.694ZM105.249 8.58807L105.16 8.75578L105.161 8.75628L105.249 8.58807ZM106.131 9.42756L105.964 9.51892L105.965 9.51948L106.131 9.42756ZM106.221 11.5199L106.054 11.4288L106.053 11.4303L106.221 11.5199ZM105.701 12.0994L105.596 11.9407L105.595 11.9413L105.701 12.0994ZM105.006 12.4148L104.956 12.2315L104.816 12.2697V12.4148H105.006ZM105.006 12.5H104.816V12.6783L104.994 12.6896L105.006 12.5ZM105.811 12.7812L105.71 12.9419L105.811 12.7812ZM106.463 15.8622L106.629 15.9562L106.463 15.8622ZM105.522 16.6932L105.44 16.5217L105.522 16.6932ZM101.75 16.0625H101.56V16.2525H101.75V16.0625ZM105.317 15.6619L105.446 15.8016L105.446 15.8016L105.317 15.6619ZM105.53 13.8636L105.367 13.9609L105.367 13.9617L105.53 13.8636ZM104.887 13.2585L104.795 13.4249L104.796 13.4256L104.887 13.2585ZM101.75 13.0284V12.8384H101.56V13.0284H101.75ZM101.75 12.108H101.56V12.298H101.75V12.108ZM104.571 11.9205L104.489 11.7494L104.488 11.7498L104.571 11.9205ZM105.185 11.392L105.028 11.2857L105.027 11.2871L105.185 11.392ZM105.015 9.61506L104.879 9.7487L104.88 9.74941L105.015 9.61506ZM101.75 9.21023V9.02023H101.56V9.21023H101.75ZM100.694 17H100.884V8.27273H100.694H100.504V17H100.694ZM100.694 8.27273V8.46273H103.745V8.27273V8.08273H100.694V8.27273ZM103.745 8.27273V8.46273C104.332 8.46273 104.8 8.56449 105.16 8.75578L105.249 8.58807L105.338 8.42035C104.908 8.19119 104.373 8.08273 103.745 8.08273V8.27273ZM105.249 8.58807L105.161 8.75628C105.526 8.94829 105.791 9.20295 105.964 9.51892L106.131 9.42756L106.298 9.3362C106.085 8.94762 105.761 8.64262 105.337 8.41986L105.249 8.58807ZM106.131 9.42756L105.965 9.51948C106.141 9.83888 106.231 10.1947 106.231 10.5909H106.421H106.611C106.611 10.1348 106.507 9.71509 106.297 9.33563L106.131 9.42756ZM106.421 10.5909H106.231C106.231 10.9447 106.168 11.2204 106.054 11.4288L106.221 11.5199L106.387 11.611C106.54 11.3307 106.611 10.9872 106.611 10.5909H106.421ZM106.221 11.5199L106.053 11.4303C105.936 11.6487 105.784 11.8173 105.596 11.9407L105.701 12.0994L105.805 12.2582C106.049 12.0975 106.244 11.8797 106.388 11.6095L106.221 11.5199ZM105.701 12.0994L105.595 11.9413C105.399 12.0719 105.187 12.1686 104.956 12.2315L105.006 12.4148L105.056 12.5981C105.325 12.5246 105.576 12.411 105.806 12.2575L105.701 12.0994ZM105.006 12.4148H104.816V12.5H105.006H105.196V12.4148H105.006ZM105.006 12.5L104.994 12.6896C105.224 12.7043 105.462 12.7852 105.71 12.9419L105.811 12.7812L105.913 12.6206C105.621 12.4364 105.323 12.3298 105.018 12.3104L105.006 12.5ZM105.811 12.7812L105.71 12.9419C105.95 13.0934 106.155 13.3133 106.324 13.6085L106.489 13.5142L106.654 13.4199C106.459 13.0788 106.213 12.81 105.913 12.6206L105.811 12.7812ZM106.489 13.5142L106.324 13.6085C106.486 13.8915 106.572 14.2463 106.572 14.6818H106.762H106.952C106.952 14.1969 106.856 13.7733 106.654 13.4199L106.489 13.5142ZM106.762 14.6818H106.572C106.572 15.0894 106.479 15.4499 106.298 15.7682L106.463 15.8622L106.629 15.9562C106.845 15.5756 106.952 15.1493 106.952 14.6818H106.762ZM106.463 15.8622L106.298 15.7682C106.122 16.0781 105.84 16.3307 105.44 16.5217L105.522 16.6932L105.603 16.8647C106.061 16.6465 106.407 16.3452 106.629 15.9562L106.463 15.8622ZM105.522 16.6932L105.44 16.5217C105.045 16.7099 104.518 16.81 103.847 16.81V17V17.19C104.551 17.19 105.14 17.0856 105.603 16.8647L105.522 16.6932ZM103.847 17V16.81H100.694V17V17.19H103.847V17ZM101.75 16.0625V16.2525H103.847V16.0625V15.8725H101.75V16.0625ZM103.847 16.0625V16.2525C104.552 16.2525 105.103 16.1179 105.446 15.8016L105.317 15.6619L105.188 15.5222C104.952 15.74 104.522 15.8725 103.847 15.8725V16.0625ZM105.317 15.6619L105.446 15.8016C105.776 15.4973 105.946 15.1206 105.946 14.6818H105.756H105.566C105.566 15.0101 105.444 15.2868 105.188 15.5223L105.317 15.6619ZM105.756 14.6818H105.946C105.946 14.3523 105.862 14.0456 105.693 13.7656L105.53 13.8636L105.367 13.9617C105.5 14.1817 105.566 14.4205 105.566 14.6818H105.756ZM105.53 13.8636L105.693 13.7664C105.524 13.4819 105.283 13.257 104.977 13.0914L104.887 13.2585L104.796 13.4256C105.047 13.5612 105.235 13.7397 105.367 13.9609L105.53 13.8636ZM104.887 13.2585L104.978 13.0921C104.667 12.9204 104.305 12.8384 103.898 12.8384V13.0284V13.2184C104.253 13.2184 104.55 13.2898 104.795 13.4249L104.887 13.2585ZM103.898 13.0284V12.8384H101.75V13.0284V13.2184H103.898V13.0284ZM101.75 13.0284H101.56V16.0625H101.75H101.94V13.0284H101.75ZM101.75 12.108V12.298H103.711V12.108V11.918H101.75V12.108ZM103.711 12.108V12.298C104.054 12.298 104.37 12.2303 104.655 12.0911L104.571 11.9205L104.488 11.7498C104.261 11.8606 104.003 11.918 103.711 11.918V12.108ZM104.571 11.9205L104.654 12.0915C104.942 11.9525 105.173 11.7542 105.343 11.497L105.185 11.392L105.027 11.2871C104.896 11.4844 104.718 11.6384 104.489 11.7494L104.571 11.9205ZM105.185 11.392L105.342 11.4983C105.52 11.236 105.605 10.9309 105.605 10.5909H105.415H105.225C105.225 10.8645 105.157 11.0935 105.028 11.2857L105.185 11.392ZM105.415 10.5909H105.605C105.605 10.1579 105.452 9.784 105.149 9.48071L105.015 9.61506L104.88 9.74941C105.111 9.9802 105.225 10.2569 105.225 10.5909H105.415ZM105.015 9.61506L105.15 9.48142C104.832 9.16032 104.349 9.02023 103.745 9.02023V9.21023V9.40023C104.3 9.40023 104.663 9.53002 104.88 9.74869L105.015 9.61506ZM103.745 9.21023V9.02023H101.75V9.21023V9.40023H103.745V9.21023ZM101.75 9.21023H101.56V12.108H101.75H101.94V9.21023H101.75ZM108.856 17V17.19H108.99L109.035 17.0636L108.856 17ZM107.748 17L107.57 16.9345L107.476 17.19H107.748V17ZM110.953 8.27273V8.08273H110.82L110.774 8.20724L110.953 8.27273ZM112.044 8.27273L112.222 8.20724L112.176 8.08273H112.044V8.27273ZM115.248 17V17.19H115.52L115.427 16.9345L115.248 17ZM114.14 17L113.961 17.0636L114.006 17.19H114.14V17ZM111.532 9.65341L111.711 9.58985L111.666 9.46341H111.532V9.65341ZM111.464 9.65341V9.46341H111.33L111.285 9.58985L111.464 9.65341ZM109.265 13.5909V13.4009H109.075V13.5909H109.265ZM113.731 13.5909H113.921V13.4009H113.731V13.5909ZM113.731 14.5284V14.7184H113.921V14.5284H113.731ZM109.265 14.5284H109.075V14.7184H109.265V14.5284ZM108.856 17V16.81H107.748V17V17.19H108.856V17ZM107.748 17L107.927 17.0655L111.131 8.33822L110.953 8.27273L110.774 8.20724L107.57 16.9345L107.748 17ZM110.953 8.27273V8.46273H112.044V8.27273V8.08273H110.953V8.27273ZM112.044 8.27273L111.865 8.33822L115.07 17.0655L115.248 17L115.427 16.9345L112.222 8.20724L112.044 8.27273ZM115.248 17V16.81H114.14V17V17.19H115.248V17ZM114.14 17L114.319 16.9364L111.711 9.58985L111.532 9.65341L111.353 9.71697L113.961 17.0636L114.14 17ZM111.532 9.65341V9.46341H111.464V9.65341V9.84341H111.532V9.65341ZM111.464 9.65341L111.285 9.58985L108.677 16.9364L108.856 17L109.035 17.0636L111.643 9.71697L111.464 9.65341ZM109.265 13.5909V13.7809H113.731V13.5909V13.4009H109.265V13.5909ZM113.731 13.5909H113.541V14.5284H113.731H113.921V13.5909H113.731ZM113.731 14.5284V14.3384H109.265V14.5284V14.7184H113.731V14.5284ZM109.265 14.5284H109.455V13.5909H109.265H109.075V14.5284H109.265ZM119.983 17H119.793V17.19H119.983V17ZM119.983 8.27273V8.08273H119.793V8.27273H119.983ZM121.039 8.27273H121.229V8.08273H121.039V8.27273ZM121.039 12.1591H120.849V12.3491H121.039V12.1591ZM125.693 12.1591V12.3491H125.883V12.1591H125.693ZM125.693 8.27273V8.08273H125.503V8.27273H125.693ZM126.75 8.27273H126.94V8.08273H126.75V8.27273ZM126.75 17V17.19H126.94V17H126.75ZM125.693 17H125.503V17.19H125.693V17ZM125.693 13.0966H125.883V12.9066H125.693V13.0966ZM121.039 13.0966V12.9066H120.849V13.0966H121.039ZM121.039 17V17.19H121.229V17H121.039ZM119.983 17H120.173V8.27273H119.983H119.793V17H119.983ZM119.983 8.27273V8.46273H121.039V8.27273V8.08273H119.983V8.27273ZM121.039 8.27273H120.849V12.1591H121.039H121.229V8.27273H121.039ZM121.039 12.1591V12.3491H125.693V12.1591V11.9691H121.039V12.1591ZM125.693 12.1591H125.883V8.27273H125.693H125.503V12.1591H125.693ZM125.693 8.27273V8.46273H126.75V8.27273V8.08273H125.693V8.27273ZM126.75 8.27273H126.56V17H126.75H126.94V8.27273H126.75ZM126.75 17V16.81H125.693V17V17.19H126.75V17ZM125.693 17H125.883V13.0966H125.693H125.503V17H125.693ZM125.693 13.0966V12.9066H121.039V13.0966V13.2866H125.693V13.0966ZM121.039 13.0966H120.849V17H121.039H121.229V13.0966H121.039ZM121.039 17V16.81H119.983V17V17.19H121.039V17ZM129.223 17V17.19H129.358L129.402 17.0636L129.223 17ZM128.115 17L127.937 16.9345L127.843 17.19H128.115V17ZM131.32 8.27273V8.08273H131.187L131.142 8.20724L131.32 8.27273ZM132.411 8.27273L132.589 8.20724L132.544 8.08273H132.411V8.27273ZM135.615 17V17.19H135.888L135.794 16.9345L135.615 17ZM134.507 17L134.328 17.0636L134.373 17.19H134.507V17ZM131.9 9.65341L132.079 9.58985L132.034 9.46341H131.9V9.65341ZM131.831 9.65341V9.46341H131.697L131.652 9.58985L131.831 9.65341ZM129.632 13.5909V13.4009H129.442V13.5909H129.632ZM134.098 13.5909H134.288V13.4009H134.098V13.5909ZM134.098 14.5284V14.7184H134.288V14.5284H134.098ZM129.632 14.5284H129.442V14.7184H129.632V14.5284ZM129.223 17V16.81H128.115V17V17.19H129.223V17ZM128.115 17L128.294 17.0655L131.498 8.33822L131.32 8.27273L131.142 8.20724L127.937 16.9345L128.115 17ZM131.32 8.27273V8.46273H132.411V8.27273V8.08273H131.32V8.27273ZM132.411 8.27273L132.233 8.33822L135.437 17.0655L135.615 17L135.794 16.9345L132.589 8.20724L132.411 8.27273ZM135.615 17V16.81H134.507V17V17.19H135.615V17ZM134.507 17L134.687 16.9364L132.079 9.58985L131.9 9.65341L131.72 9.71697L134.328 17.0636L134.507 17ZM131.9 9.65341V9.46341H131.831V9.65341V9.84341H131.9V9.65341ZM131.831 9.65341L131.652 9.58985L129.044 16.9364L129.223 17L129.402 17.0636L132.01 9.71697L131.831 9.65341ZM129.632 13.5909V13.7809H134.098V13.5909V13.4009H129.632V13.5909ZM134.098 13.5909H133.908V14.5284H134.098H134.288V13.5909H134.098ZM134.098 14.5284V14.3384H129.632V14.5284V14.7184H134.098V14.5284ZM129.632 14.5284H129.822V13.5909H129.632H129.442V14.5284H129.632ZM140.35 8.27273V8.08273H140.16V8.27273H140.35ZM141.611 8.27273L141.787 8.20074L141.739 8.08273H141.611V8.27273ZM144.577 15.517L144.401 15.589L144.45 15.707H144.577V15.517ZM144.679 15.517V15.707H144.807L144.855 15.589L144.679 15.517ZM147.645 8.27273V8.08273H147.518L147.469 8.20074L147.645 8.27273ZM148.907 8.27273H149.097V8.08273H148.907V8.27273ZM148.907 17V17.19H149.097V17H148.907ZM147.918 17H147.728V17.19H147.918V17ZM147.918 10.3693H148.108V10.1793H147.918V10.3693ZM147.833 10.3693V10.1793H147.705L147.657 10.297L147.833 10.3693ZM145.105 17V17.19H145.233L145.281 17.0723L145.105 17ZM144.151 17L143.975 17.0723L144.024 17.19H144.151V17ZM141.424 10.3693L141.599 10.297L141.551 10.1793H141.424V10.3693ZM141.338 10.3693V10.1793H141.148V10.3693H141.338ZM141.338 17V17.19H141.528V17H141.338ZM140.35 17H140.16V17.19H140.35V17ZM140.35 8.27273V8.46273H141.611V8.27273V8.08273H140.35V8.27273ZM141.611 8.27273L141.435 8.34472L144.401 15.589L144.577 15.517L144.753 15.4451L141.787 8.20074L141.611 8.27273ZM144.577 15.517V15.707H144.679V15.517V15.327H144.577V15.517ZM144.679 15.517L144.855 15.589L147.821 8.34472L147.645 8.27273L147.469 8.20074L144.504 15.4451L144.679 15.517ZM147.645 8.27273V8.46273H148.907V8.27273V8.08273H147.645V8.27273ZM148.907 8.27273H148.717V17H148.907H149.097V8.27273H148.907ZM148.907 17V16.81H147.918V17V17.19H148.907V17ZM147.918 17H148.108V10.3693H147.918H147.728V17H147.918ZM147.918 10.3693V10.1793H147.833V10.3693V10.5593H147.918V10.3693ZM147.833 10.3693L147.657 10.297L144.93 16.9277L145.105 17L145.281 17.0723L148.008 10.4416L147.833 10.3693ZM145.105 17V16.81H144.151V17V17.19H145.105V17ZM144.151 17L144.327 16.9277L141.599 10.297L141.424 10.3693L141.248 10.4416L143.975 17.0723L144.151 17ZM141.424 10.3693V10.1793H141.338V10.3693V10.5593H141.424V10.3693ZM141.338 10.3693H141.148V17H141.338H141.528V10.3693H141.338ZM141.338 17V16.81H140.35V17V17.19H141.338V17ZM140.35 17H140.54V8.27273H140.35H140.16V17H140.35ZM151.81 11.9375V11.7475H151.62V11.9375H151.81ZM155.879 12.2443L155.797 12.4158L155.798 12.416L155.879 12.2443ZM156.859 13.1094L156.696 13.2066L156.697 13.2075L156.859 13.1094ZM156.859 15.7642L156.695 15.6688L156.695 15.6697L156.859 15.7642ZM155.879 16.6719L155.793 16.5024L155.793 16.5026L155.879 16.6719ZM151.026 17H150.836V17.19H151.026V17ZM151.026 8.27273V8.08273H150.836V8.27273H151.026ZM152.082 8.27273H152.272V8.08273H152.082V8.27273ZM152.082 16.0795H151.892V16.2695H152.082V16.0795ZM155.308 15.8409L155.403 16.0055L155.404 16.0051L155.308 15.8409ZM155.939 15.2188L155.774 15.1251L155.773 15.1257L155.939 15.2188ZM155.675 13.331L155.544 13.4689L155.545 13.4695L155.675 13.331ZM151.81 12.875H151.62V13.065H151.81V12.875ZM159.105 8.27273H159.295V8.08273H159.105V8.27273ZM159.105 17V17.19H159.295V17H159.105ZM158.048 17H157.858V17.19H158.048V17ZM158.048 8.27273V8.08273H157.858V8.27273H158.048ZM151.81 11.9375V12.1275H154.298V11.9375V11.7475H151.81V11.9375ZM154.298 11.9375V12.1275C154.904 12.1275 155.401 12.2267 155.797 12.4158L155.879 12.2443L155.961 12.0728C155.5 11.8529 154.943 11.7475 154.298 11.7475V11.9375ZM155.879 12.2443L155.798 12.416C156.199 12.6062 156.496 12.8702 156.696 13.2066L156.859 13.1094L157.023 13.0122C156.78 12.6043 156.423 12.2916 155.961 12.0726L155.879 12.2443ZM156.859 13.1094L156.697 13.2075C156.9 13.5455 157.006 13.9493 157.006 14.4261H157.196H157.386C157.386 13.8916 157.267 13.4176 157.022 13.0113L156.859 13.1094ZM157.196 14.4261H157.006C157.006 14.9028 156.901 15.3151 156.695 15.6688L156.859 15.7642L157.024 15.8596C157.267 15.4406 157.386 14.9608 157.386 14.4261H157.196ZM156.859 15.7642L156.695 15.6697C156.493 16.0211 156.195 16.2989 155.793 16.5024L155.879 16.6719L155.965 16.8414C156.427 16.6074 156.783 16.28 157.024 15.8587L156.859 15.7642ZM155.879 16.6719L155.793 16.5026C155.397 16.7043 154.902 16.81 154.298 16.81V17V17.19C154.945 17.19 155.503 17.077 155.966 16.8411L155.879 16.6719ZM154.298 17V16.81H151.026V17V17.19H154.298V17ZM151.026 17H151.216V8.27273H151.026H150.836V17H151.026ZM151.026 8.27273V8.46273H152.082V8.27273V8.08273H151.026V8.27273ZM152.082 8.27273H151.892V16.0795H152.082H152.272V8.27273H152.082ZM152.082 16.0795V16.2695H154.298V16.0795V15.8895H152.082V16.0795ZM154.298 16.0795V16.2695C154.721 16.2695 155.092 16.1849 155.403 16.0055L155.308 15.8409L155.213 15.6764C154.973 15.8151 154.671 15.8895 154.298 15.8895V16.0795ZM155.308 15.8409L155.404 16.0051C155.708 15.8281 155.944 15.5974 156.105 15.3118L155.939 15.2188L155.773 15.1257C155.65 15.3458 155.465 15.5298 155.213 15.6767L155.308 15.8409ZM155.939 15.2188L156.104 15.3124C156.265 15.0292 156.346 14.7272 156.346 14.4091H156.156H155.966C155.966 14.6592 155.903 14.8969 155.774 15.1251L155.939 15.2188ZM156.156 14.4091H156.346C156.346 13.9359 156.162 13.5273 155.805 13.1924L155.675 13.331L155.545 13.4695C155.83 13.7369 155.966 14.0471 155.966 14.4091H156.156ZM155.675 13.331L155.805 13.193C155.438 12.8453 154.926 12.685 154.298 12.685V12.875V13.065C154.864 13.065 155.269 13.2086 155.544 13.4689L155.675 13.331ZM154.298 12.875V12.685H151.81V12.875V13.065H154.298V12.875ZM151.81 12.875H152V11.9375H151.81H151.62V12.875H151.81ZM159.105 8.27273H158.915V17H159.105H159.295V8.27273H159.105ZM159.105 17V16.81H158.048V17V17.19H159.105V17ZM158.048 17H158.238V8.27273H158.048H157.858V17H158.048ZM158.048 8.27273V8.46273H159.105V8.27273V8.08273H158.048V8.27273ZM160.471 17H160.281V17.19H160.471V17ZM160.471 16.0284V15.8384H160.281V16.0284H160.471ZM161.575 15.679L161.431 15.5546L161.575 15.679ZM162.009 14.5497L161.822 14.517L161.822 14.518L162.009 14.5497ZM162.192 12.483L162.003 12.476V12.476L162.192 12.483ZM162.346 8.27273V8.08273H162.163L162.156 8.26581L162.346 8.27273ZM167.664 8.27273H167.854V8.08273H167.664V8.27273ZM167.664 17V17.19H167.854V17H167.664ZM166.607 17H166.417V17.19H166.607V17ZM166.607 9.21023H166.797V9.02023H166.607V9.21023ZM163.352 9.21023V9.02023H163.169L163.162 9.20278L163.352 9.21023ZM163.215 12.6875L163.025 12.6801L163.025 12.6804L163.215 12.6875ZM162.964 15.0227L163.15 15.0614L162.964 15.0227ZM162.261 16.4929L162.396 16.6267L162.261 16.4929ZM160.471 17H160.661V16.0284H160.471H160.281V17H160.471ZM160.471 16.0284V16.2184H160.727V16.0284V15.8384H160.471V16.0284ZM160.727 16.0284V16.2184C161.134 16.2184 161.474 16.0856 161.718 15.8033L161.575 15.679L161.431 15.5546C161.272 15.7383 161.046 15.8384 160.727 15.8384V16.0284ZM161.575 15.679L161.718 15.8033C161.954 15.5314 162.106 15.1142 162.197 14.5814L162.009 14.5497L161.822 14.518C161.736 15.0251 161.599 15.3606 161.431 15.5546L161.575 15.679ZM162.009 14.5497L162.196 14.5824C162.289 14.0504 162.351 13.3518 162.382 12.4899L162.192 12.483L162.003 12.476C161.971 13.33 161.911 14.0092 161.822 14.517L162.009 14.5497ZM162.192 12.483L162.382 12.4899L162.536 8.27965L162.346 8.27273L162.156 8.26581L162.003 12.476L162.192 12.483ZM162.346 8.27273V8.46273H167.664V8.27273V8.08273H162.346V8.27273ZM167.664 8.27273H167.474V17H167.664H167.854V8.27273H167.664ZM167.664 17V16.81H166.607V17V17.19H167.664V17ZM166.607 17H166.797V9.21023H166.607H166.417V17H166.607ZM166.607 9.21023V9.02023H163.352V9.21023V9.40023H166.607V9.21023ZM163.352 9.21023L163.162 9.20278L163.025 12.6801L163.215 12.6875L163.405 12.6949L163.541 9.21767L163.352 9.21023ZM163.215 12.6875L163.025 12.6804C162.991 13.5884 162.908 14.3556 162.778 14.984L162.964 15.0227L163.15 15.0614C163.286 14.4058 163.371 13.6162 163.405 12.6946L163.215 12.6875ZM162.964 15.0227L162.778 14.984C162.649 15.6032 162.427 16.0553 162.126 16.3591L162.261 16.4929L162.396 16.6267C162.765 16.2544 163.012 15.7263 163.15 15.0614L162.964 15.0227ZM162.261 16.4929L162.126 16.3591C161.837 16.6501 161.404 16.81 160.795 16.81V17V17.19C161.469 17.19 162.014 17.0119 162.396 16.6267L162.261 16.4929ZM160.795 17V16.81H160.471V17V17.19H160.795V17ZM176.641 15.0227L176.47 14.9383L176.641 15.0227ZM175.273 16.5739L175.374 16.7348L175.273 16.5739ZM171.301 16.5739L171.2 16.7348L171.301 16.5739ZM169.933 15.0227L170.103 14.9383L169.933 15.0227ZM175.273 8.69886L175.374 8.53792L175.273 8.69886ZM176.641 10.25L176.47 10.3344V10.3344L176.641 10.25ZM175.737 10.723L175.566 10.8054L175.566 10.8061L175.737 10.723ZM174.719 9.54261L174.618 9.70361L174.618 9.70391L174.719 9.54261ZM171.851 9.54261L171.75 9.38131L171.75 9.38161L171.851 9.54261ZM170.832 10.723L170.662 10.6399L170.661 10.6407L170.832 10.723ZM170.832 14.5497L170.661 14.6321L170.662 14.6328L170.832 14.5497ZM171.851 15.7301L171.75 15.8911L171.75 15.8914L171.851 15.7301ZM174.719 15.7301L174.618 15.5688L174.618 15.5691L174.719 15.7301ZM175.737 14.5497L175.566 14.4666L175.566 14.4674L175.737 14.5497ZM177.139 12.6364H176.949C176.949 13.5341 176.787 14.2995 176.47 14.9383L176.641 15.0227L176.811 15.1071C177.159 14.4051 177.329 13.5795 177.329 12.6364H177.139ZM176.641 15.0227L176.47 14.9383C176.152 15.5804 175.719 16.0697 175.172 16.4129L175.273 16.5739L175.374 16.7348C175.986 16.3508 176.464 15.8059 176.811 15.1071L176.641 15.0227ZM175.273 16.5739L175.172 16.4129C174.625 16.7559 173.999 16.9293 173.287 16.9293V17.1193V17.3093C174.064 17.3093 174.761 17.1191 175.374 16.7348L175.273 16.5739ZM173.287 17.1193V16.9293C172.575 16.9293 171.949 16.7559 171.402 16.4129L171.301 16.5739L171.2 16.7348C171.813 17.1191 172.51 17.3093 173.287 17.3093V17.1193ZM171.301 16.5739L171.402 16.4129C170.855 16.0697 170.422 15.5804 170.103 14.9383L169.933 15.0227L169.763 15.1071C170.109 15.8059 170.588 16.3508 171.2 16.7348L171.301 16.5739ZM169.933 15.0227L170.103 14.9383C169.787 14.2995 169.625 13.5341 169.625 12.6364H169.435H169.245C169.245 13.5795 169.415 14.4051 169.763 15.1071L169.933 15.0227ZM169.435 12.6364H169.625C169.625 11.7386 169.787 10.9733 170.103 10.3344L169.933 10.25L169.763 10.1656C169.415 10.8676 169.245 11.6932 169.245 12.6364H169.435ZM169.933 10.25L170.103 10.3344C170.422 9.69231 170.855 9.20308 171.402 8.85981L171.301 8.69886L171.2 8.53792C170.588 8.92192 170.109 9.46678 169.763 10.1656L169.933 10.25ZM171.301 8.69886L171.402 8.85981C171.949 8.51682 172.575 8.34341 173.287 8.34341V8.15341V7.96341C172.51 7.96341 171.813 8.15364 171.2 8.53792L171.301 8.69886ZM173.287 8.15341V8.34341C173.999 8.34341 174.625 8.51682 175.172 8.85981L175.273 8.69886L175.374 8.53792C174.761 8.15364 174.064 7.96341 173.287 7.96341V8.15341ZM175.273 8.69886L175.172 8.85981C175.719 9.20308 176.152 9.69231 176.47 10.3344L176.641 10.25L176.811 10.1656C176.464 9.46678 175.986 8.92192 175.374 8.53792L175.273 8.69886ZM176.641 10.25L176.47 10.3344C176.787 10.9733 176.949 11.7386 176.949 12.6364H177.139H177.329C177.329 11.6932 177.159 10.8676 176.811 10.1656L176.641 10.25ZM176.116 12.6364H176.306C176.306 11.8604 176.177 11.1924 175.908 10.6399L175.737 10.723L175.566 10.8061C175.803 11.2934 175.926 11.901 175.926 12.6364H176.116ZM175.737 10.723L175.908 10.6407C175.645 10.093 175.283 9.67001 174.819 9.38131L174.719 9.54261L174.618 9.70391C175.013 9.9493 175.329 10.3133 175.566 10.8054L175.737 10.723ZM174.719 9.54261L174.82 9.38161C174.362 9.09464 173.849 8.95205 173.287 8.95205V9.14205V9.33205C173.782 9.33205 174.224 9.4565 174.618 9.70361L174.719 9.54261ZM173.287 9.14205V8.95205C172.725 8.95205 172.211 9.09463 171.75 9.38131L171.851 9.54261L171.951 9.70391C172.349 9.4565 172.792 9.33205 173.287 9.33205V9.14205ZM171.851 9.54261L171.75 9.38161C171.289 9.67025 170.928 10.0929 170.662 10.6399L170.832 10.723L171.003 10.8061C171.243 10.3133 171.56 9.94906 171.952 9.70361L171.851 9.54261ZM170.832 10.723L170.661 10.6407C170.396 11.1929 170.267 11.8607 170.267 12.6364H170.457H170.647C170.647 11.9007 170.769 11.2929 171.004 10.8054L170.832 10.723ZM170.457 12.6364H170.267C170.267 13.4121 170.396 14.0798 170.661 14.6321L170.832 14.5497L171.004 14.4674C170.769 13.9799 170.647 13.372 170.647 12.6364H170.457ZM170.832 14.5497L170.662 14.6328C170.928 15.1798 171.289 15.6025 171.75 15.8911L171.851 15.7301L171.952 15.5691C171.56 15.3237 171.243 14.9594 171.003 14.4666L170.832 14.5497ZM171.851 15.7301L171.75 15.8914C172.211 16.1781 172.725 16.3207 173.287 16.3207V16.1307V15.9407C172.792 15.9407 172.349 15.8162 171.951 15.5688L171.851 15.7301ZM173.287 16.1307V16.3207C173.849 16.3207 174.362 16.1781 174.82 15.8911L174.719 15.7301L174.618 15.5691C174.224 15.8162 173.782 15.9407 173.287 15.9407V16.1307ZM174.719 15.7301L174.819 15.8914C175.283 15.6027 175.645 15.1797 175.908 14.6321L175.737 14.5497L175.566 14.4674C175.329 14.9595 175.013 15.3234 174.618 15.5688L174.719 15.7301ZM175.737 14.5497L175.908 14.6328C176.177 14.0803 176.306 13.4123 176.306 12.6364H176.116H175.926C175.926 13.3717 175.803 13.9793 175.566 14.4666L175.737 14.5497Z" fill="black"/>
</svg>
